<svg id="spaguetti" xmlns="http://www.w3.org/2000/svg" width="105" height="105" viewBox="0 0 105 105">
  <g id="Group_42" data-name="Group 42" transform="translate(0 84)">
    <g id="Group_41" data-name="Group 41">
      <path id="Path_17" data-name="Path 17" d="M103.25,409.6H1.75A1.749,1.749,0,0,0,0,411.35,19.273,19.273,0,0,0,19.25,430.6h66.5A19.273,19.273,0,0,0,105,411.35,1.748,1.748,0,0,0,103.25,409.6Zm-17.5,17.5H19.25A15.773,15.773,0,0,1,3.6,413.1H101.4A15.771,15.771,0,0,1,85.75,427.1Z" transform="translate(0 -409.6)" fill="#fff"/>
    </g>
  </g>
  <g id="Group_44" data-name="Group 44" transform="translate(33.831 57.75)">
    <g id="Group_43" data-name="Group 43">
      <path id="Path_18" data-name="Path 18" d="M183.638,281.6h-.023a27.839,27.839,0,0,0-18.648,7.152l2.34,2.6a24.357,24.357,0,0,1,16.31-6.253h.019c9.7,0,17.99,5.064,21.124,12.9l3.251-1.3C204.342,287.527,194.773,281.6,183.638,281.6Z" transform="translate(-164.967 -281.6)" fill="#fff"/>
    </g>
  </g>
  <g id="Group_46" data-name="Group 46" transform="translate(36.313 64.771)">
    <g id="Group_45" data-name="Group 45">
      <path id="Path_19" data-name="Path 19" d="M206.631,320.634a21.027,21.027,0,0,0-29.564,2.818l2.7,2.228a17.5,17.5,0,0,1,27.808,1.081l2.867-2.011A21.2,21.2,0,0,0,206.631,320.634Z" transform="translate(-177.067 -315.835)" fill="#fff"/>
    </g>
  </g>
  <g id="Group_48" data-name="Group 48" transform="translate(42.499 71.756)">
    <g id="Group_47" data-name="Group 47">
      <path id="Path_20" data-name="Path 20" d="M227.031,353.89a14.018,14.018,0,0,0-19.8.2l2.5,2.45a10.5,10.5,0,0,1,18,7.35h3.5A14.069,14.069,0,0,0,227.031,353.89Z" transform="translate(-207.232 -349.895)" fill="#fff"/>
    </g>
  </g>
  <g id="Group_50" data-name="Group 50" transform="translate(70 64.75)">
    <g id="Group_49" data-name="Group 49">
      <path id="Path_21" data-name="Path 21" d="M343.161,315.733h-1.827v3.5h1.757a19.431,19.431,0,0,1,19.25,17.645l3.486-.291A22.869,22.869,0,0,0,343.161,315.733Z" transform="translate(-341.334 -315.733)" fill="#fff"/>
    </g>
  </g>
  <g id="Group_52" data-name="Group 52" transform="translate(59.946 71.756)">
    <g id="Group_51" data-name="Group 51">
      <path id="Path_22" data-name="Path 22" d="M314.549,353.906a15.753,15.753,0,0,0-22.239,1.239l2.608,2.334A12.249,12.249,0,0,1,316.2,364.11l3.474-.441A15.762,15.762,0,0,0,314.549,353.906Z" transform="translate(-292.31 -349.895)" fill="#fff"/>
    </g>
  </g>
  <g id="Group_54" data-name="Group 54" transform="translate(63.194 78.733)">
    <g id="Group_53" data-name="Group 53">
      <path id="Path_23" data-name="Path 23" d="M318.794,384.195a8.76,8.76,0,0,0-10.647,6.307l3.392.868a5.25,5.25,0,0,1,10.171,0l3.392-.868A8.751,8.751,0,0,0,318.794,384.195Z" transform="translate(-308.147 -383.919)" fill="#fff"/>
    </g>
  </g>
  <g id="Group_56" data-name="Group 56" transform="translate(10.507 64.711)">
    <g id="Group_55" data-name="Group 55">
      <path id="Path_24" data-name="Path 24" d="M75.764,315.623a22.75,22.75,0,0,0-24.53,20.818l3.488.287a19.247,19.247,0,0,1,20.757-17.614,19.346,19.346,0,0,1,8.118,2.552l1.762-3.026A22.888,22.888,0,0,0,75.764,315.623Z" transform="translate(-51.234 -315.546)" fill="#fff"/>
    </g>
  </g>
  <g id="Group_58" data-name="Group 58" transform="translate(17.619 71.711)">
    <g id="Group_57" data-name="Group 57">
      <path id="Path_25" data-name="Path 25" d="M103.472,349.8A15.771,15.771,0,0,0,85.914,363.5l3.474.427a12.249,12.249,0,0,1,24.315,0l3.477-.427A15.728,15.728,0,0,0,103.472,349.8Z" transform="translate(-85.914 -349.676)" fill="#fff"/>
    </g>
  </g>
  <g id="Group_60" data-name="Group 60" transform="translate(24.783 78.765)">
    <g id="Group_59" data-name="Group 59">
      <path id="Path_26" data-name="Path 26" d="M131.527,384.36a8.747,8.747,0,0,0-10.679,6.253l3.386.886a5.251,5.251,0,0,1,10.16,0l3.385-.887A8.757,8.757,0,0,0,131.527,384.36Z" transform="translate(-120.848 -384.072)" fill="#fff"/>
    </g>
  </g>
  <g id="Group_62" data-name="Group 62" transform="translate(45.5 78.75)">
    <g id="Group_61" data-name="Group 61">
      <path id="Path_27" data-name="Path 27" d="M228.867,384a7.007,7.007,0,0,0-7,7h3.5a3.5,3.5,0,0,1,7,0h3.5A7.008,7.008,0,0,0,228.867,384Z" transform="translate(-221.867 -384)" fill="#fff"/>
    </g>
  </g>
  <g id="Group_64" data-name="Group 64" transform="translate(17.5 7)">
    <g id="Group_63" data-name="Group 63">
      <rect id="Rectangle_15" data-name="Rectangle 15" width="14" height="3.5" fill="#fff"/>
    </g>
  </g>
  <g id="Group_66" data-name="Group 66" transform="translate(21 14)">
    <g id="Group_65" data-name="Group 65">
      <rect id="Rectangle_16" data-name="Rectangle 16" width="10.5" height="3.5" fill="#fff"/>
    </g>
  </g>
  <g id="Group_68" data-name="Group 68" transform="translate(7)">
    <g id="Group_67" data-name="Group 67">
      <path id="Path_28" data-name="Path 28" d="M40.78,37.632a10.625,10.625,0,0,1,0-10.512,14.141,14.141,0,0,0,0-13.988,10.625,10.625,0,0,1,0-10.512A1.75,1.75,0,0,0,39.261,0H34.133V3.5h2.45a14.149,14.149,0,0,0,1.158,11.368,10.625,10.625,0,0,1,0,10.512,14.141,14.141,0,0,0,0,13.988,10.625,10.625,0,0,1,0,10.512,14.057,14.057,0,0,0-.072,13.848,27.012,27.012,0,0,1,1.348,3.6l3.357-.989a30.293,30.293,0,0,0-1.594-4.207,10.625,10.625,0,0,1,0-10.512A14.141,14.141,0,0,0,40.78,37.632Z" transform="translate(-34.133)" fill="#fff"/>
    </g>
  </g>
  <g id="Group_70" data-name="Group 70" transform="translate(16.003)">
    <g id="Group_69" data-name="Group 69">
      <path id="Path_29" data-name="Path 29" d="M167.027,12.757a9.331,9.331,0,0,0-9.55-9.03l-50.993,1.5-2.669-2.669A8.69,8.69,0,0,0,97.634,0H81.4a1.75,1.75,0,0,0-1.519.88,14.141,14.141,0,0,0,0,13.988,10.625,10.625,0,0,1,0,10.512,14.141,14.141,0,0,0,0,13.988,10.625,10.625,0,0,1,0,10.512,14.141,14.141,0,0,0,0,13.988,10.547,10.547,0,0,1,.63,1.306l3.248-1.3a13.856,13.856,0,0,0-.84-1.739,10.625,10.625,0,0,1,0-10.512,14.141,14.141,0,0,0,0-13.988,10.625,10.625,0,0,1,0-10.512A13.94,13.94,0,0,0,84.08,24.5H97.632a8.693,8.693,0,0,0,6.183-2.56l2.648-2.648L157.2,22.274c.182.01.436.007.542.016A9.3,9.3,0,0,0,167.03,13Zm-9.291,6.032a1.55,1.55,0,0,0-.332-.009l-51.52-3.027a1.724,1.724,0,0,0-1.341.509l-3.2,3.2A5.216,5.216,0,0,1,97.63,21H84.745a14.116,14.116,0,0,0-1.824-7.87,10.635,10.635,0,0,1-.45-9.63h15.16a5.211,5.211,0,0,1,3.708,1.536l3.2,3.2a1.712,1.712,0,0,0,1.288.511l51.746-1.524a5.783,5.783,0,1,1,.159,11.564Z" transform="translate(-78.033)" fill="#fff"/>
    </g>
  </g>
  <g id="Group_72" data-name="Group 72" transform="translate(23.001 22.453)">
    <g id="Group_71" data-name="Group 71">
      <path id="Path_30" data-name="Path 30" d="M117.046,124.662a10.626,10.626,0,0,1,0-10.51,14.025,14.025,0,0,0,1.521-3.9l-3.414-.772a10.562,10.562,0,0,1-1.143,2.93,14.141,14.141,0,0,0,0,13.988,10.627,10.627,0,0,1,0,10.516,14.135,14.135,0,0,0-.478,13.062l3.159-1.5a10.628,10.628,0,0,1,.359-9.824A14.141,14.141,0,0,0,117.046,124.662Z" transform="translate(-112.157 -109.483)" fill="#fff"/>
    </g>
  </g>
  <g id="Group_74" data-name="Group 74" transform="translate(7 7)">
    <g id="Group_73" data-name="Group 73">
      <rect id="Rectangle_17" data-name="Rectangle 17" width="3.5" height="3.5" fill="#fff"/>
    </g>
  </g>
  <g id="Group_76" data-name="Group 76" transform="translate(7 14)">
    <g id="Group_75" data-name="Group 75">
      <rect id="Rectangle_18" data-name="Rectangle 18" width="5.25" height="3.5" fill="#fff"/>
    </g>
  </g>
  <g id="Group_78" data-name="Group 78" transform="translate(7 21)">
    <g id="Group_77" data-name="Group 77">
      <rect id="Rectangle_19" data-name="Rectangle 19" width="7" height="3.5" fill="#fff"/>
    </g>
  </g>
</svg>
