<svg xmlns="http://www.w3.org/2000/svg" width="101.874" height="101.881" viewBox="0 0 101.874 101.881">
  <g id="salad" transform="translate(-0.017 -0.001)">
    <g id="Group_2" data-name="Group 2" transform="translate(0.017 64.528)">
      <g id="Group_1" data-name="Group 1">
        <path id="Path_7" data-name="Path 7" d="M100.193,324.28H1.715a1.7,1.7,0,0,0-1.7,1.7,35.7,35.7,0,0,0,35.656,35.656H66.235a35.7,35.7,0,0,0,35.656-35.656A1.7,1.7,0,0,0,100.193,324.28ZM66.235,358.238H35.673A32.3,32.3,0,0,1,3.457,327.676H98.451A32.3,32.3,0,0,1,66.235,358.238Z" transform="translate(-0.017 -324.28)" fill="#fff"/>
      </g>
    </g>
    <g id="Group_4" data-name="Group 4" transform="translate(35.672 0.001)">
      <g id="Group_3" data-name="Group 3">
        <path id="Path_8" data-name="Path 8" d="M230.146,23.789c0-.124,0-.248-.014-.436a7.05,7.05,0,0,0-4.752-6l1.922-1.922a9.093,9.093,0,0,0,.75-12.176A8.926,8.926,0,0,0,215.5,2.046c-.216.178-.424.367-.633.576L212.782,4.74a7.086,7.086,0,0,0-6.05-4.729,6.787,6.787,0,0,0-7.146,6.42c-.007.124-.009.248-.009.37V9.4a6.751,6.751,0,0,0-3.389-.914c-.122,0-.248,0-.436.014a7.037,7.037,0,0,0-6.362,7.073v2.309A6.769,6.769,0,0,0,186,16.98c-.122,0-.246,0-.435.014a7.037,7.037,0,0,0-6.364,7.074v25.18a1.7,1.7,0,0,0,1.7,1.7h28.864a6.786,6.786,0,0,0,5.878-10.184h2.294a7.027,7.027,0,0,0,7.107-6.43,6.75,6.75,0,0,0-.929-3.8,6.791,6.791,0,0,0,6.031-6.742Zm-4.393,2.4a3.379,3.379,0,0,1-2.4.99h-5.1a1.7,1.7,0,0,0,0,3.4l.187.005a3.389,3.389,0,0,1,3.216,3.506,3.618,3.618,0,0,1-3.691,3.28h-8.2a1.7,1.7,0,0,0,0,3.4,3.4,3.4,0,0,1,0,6.792H182.6V24.038a3.622,3.622,0,0,1,3.216-3.657l.185-.005a3.4,3.4,0,0,1,3.391,3.391v.012a1.7,1.7,0,0,0,1.7,1.7h0a1.7,1.7,0,0,0,1.7-1.7V15.549A3.622,3.622,0,0,1,196,11.891l.183-.005a3.4,3.4,0,0,1,3.393,3.394v.01a1.7,1.7,0,0,0,1.7,1.7h0a1.7,1.7,0,0,0,1.7-1.7V6.8l.005-.188a3.366,3.366,0,0,1,3.5-3.216,3.636,3.636,0,0,1,3.28,3.695V8.5a1.7,1.7,0,0,0,2.907,1.19l4.606-4.674c.126-.124.255-.241.389-.351a5.521,5.521,0,0,1,7.747.727,5.7,5.7,0,0,1-.5,7.629l-4.465,4.465a1.7,1.7,0,0,0,1.2,2.9h1.5a3.618,3.618,0,0,1,3.6,3.216l.005.187A3.375,3.375,0,0,1,225.754,26.186Z" transform="translate(-179.202 -0.001)" fill="#fff"/>
      </g>
    </g>
    <g id="Group_6" data-name="Group 6" transform="translate(25.985 10.689)">
      <g id="Group_5" data-name="Group 5" transform="translate(0)">
        <rect id="Rectangle_4" data-name="Rectangle 4" width="67.233" height="3.396" transform="translate(0 47.54) rotate(-45)" fill="#fff"/>
      </g>
    </g>
    <g id="Group_8" data-name="Group 8" transform="translate(62.836 13.601)">
      <g id="Group_7" data-name="Group 7">
        <rect id="Rectangle_5" data-name="Rectangle 5" width="3.396" height="8.49" fill="#fff"/>
      </g>
    </g>
    <g id="Group_10" data-name="Group 10" transform="translate(52.648 22.091)">
      <g id="Group_9" data-name="Group 9">
        <rect id="Rectangle_6" data-name="Rectangle 6" width="3.396" height="10.187" fill="#fff"/>
      </g>
    </g>
    <g id="Group_12" data-name="Group 12" transform="translate(42.461 30.563)">
      <g id="Group_11" data-name="Group 11">
        <rect id="Rectangle_7" data-name="Rectangle 7" width="3.396" height="11.885" fill="#fff"/>
      </g>
    </g>
    <g id="Group_14" data-name="Group 14" transform="translate(64.534 20.393)">
      <g id="Group_13" data-name="Group 13">
        <rect id="Rectangle_8" data-name="Rectangle 8" width="8.49" height="3.396" fill="#fff"/>
      </g>
    </g>
    <g id="Group_16" data-name="Group 16" transform="translate(54.346 30.563)">
      <g id="Group_15" data-name="Group 15">
        <rect id="Rectangle_9" data-name="Rectangle 9" width="10.187" height="3.396" fill="#fff"/>
      </g>
    </g>
    <g id="Group_18" data-name="Group 18" transform="translate(44.159 40.751)">
      <g id="Group_17" data-name="Group 17">
        <rect id="Rectangle_10" data-name="Rectangle 10" width="11.885" height="3.396" fill="#fff"/>
      </g>
    </g>
    <g id="Group_20" data-name="Group 20" transform="translate(6.165 3.87)">
      <g id="Group_19" data-name="Group 19">
        <path id="Path_9" data-name="Path 9" d="M56.459,23.427l-.007-.01A7.834,7.834,0,0,0,45.6,21.251c-.112.073-.222.151-.348.245l-.611.465-.587-.423A7.81,7.81,0,1,0,34.748,33.97l1.43,1.117v.869a8.489,8.489,0,1,0,16.977,0v-.869l1.5-1.173A7.816,7.816,0,0,0,56.459,23.427Zm-3.873,7.8-2.173,1.7a1.7,1.7,0,0,0-.652,1.338v1.7a5.094,5.094,0,1,1-10.187,0v-1.7a1.693,1.693,0,0,0-.652-1.338l-2.173-1.7a1.672,1.672,0,0,0-.205-.138,4.414,4.414,0,1,1,5.25-7.012,1.79,1.79,0,0,0,.185.154l1.7,1.223a1.7,1.7,0,0,0,2.019-.025l1.79-1.346a4.391,4.391,0,0,1,5.1,7.145Z" transform="translate(-30.916 -19.441)" fill="#fff"/>
      </g>
    </g>
    <g id="Group_22" data-name="Group 22" transform="translate(37.367 1.699)">
      <g id="Group_21" data-name="Group 21">
        <rect id="Rectangle_11" data-name="Rectangle 11" width="3.396" height="3.396" fill="#fff"/>
      </g>
    </g>
    <g id="Group_24" data-name="Group 24" transform="translate(47.555 56.032)">
      <g id="Group_23" data-name="Group 23">
        <rect id="Rectangle_12" data-name="Rectangle 12" width="3.396" height="3.396" fill="#fff"/>
      </g>
    </g>
    <g id="Group_26" data-name="Group 26" transform="translate(91.704 10.197)">
      <g id="Group_25" data-name="Group 25">
        <path id="Path_10" data-name="Path 10" d="M460.787,51.24v3.4a3.4,3.4,0,1,1,0,6.792v3.4a6.792,6.792,0,1,0,0-13.583Z" transform="translate(-460.787 -51.24)" fill="#fff"/>
      </g>
    </g>
    <g id="Group_28" data-name="Group 28" transform="translate(3.41 25.486)">
      <g id="Group_27" data-name="Group 27">
        <rect id="Rectangle_13" data-name="Rectangle 13" width="3.396" height="3.396" fill="#fff"/>
      </g>
    </g>
    <g id="Group_30" data-name="Group 30" transform="translate(0.017 18.695)">
      <g id="Group_29" data-name="Group 29">
        <rect id="Rectangle_14" data-name="Rectangle 14" width="3.396" height="3.396" fill="#fff"/>
      </g>
    </g>
    <g id="Group_32" data-name="Group 32" transform="translate(59.443 54.34)">
      <g id="Group_31" data-name="Group 31">
        <path id="Path_11" data-name="Path 11" d="M305.456,273.083a6.8,6.8,0,0,0-6.792,6.792h3.4a3.4,3.4,0,1,1,6.792,0h3.4A6.8,6.8,0,0,0,305.456,273.083Z" transform="translate(-298.664 -273.083)" fill="#fff"/>
      </g>
    </g>
    <g id="Group_34" data-name="Group 34" transform="translate(0.017 33.966)">
      <g id="Group_33" data-name="Group 33" transform="translate(0)">
        <path id="Path_12" data-name="Path 12" d="M20.393,175.784h-.214a6.794,6.794,0,0,0-13.155,0H6.81a6.792,6.792,0,0,0,0,13.583H20.393a6.792,6.792,0,0,0,0-13.583Zm0,10.189H6.809a3.4,3.4,0,1,1,0-6.792h1.7a1.7,1.7,0,0,0,1.7-1.7,3.4,3.4,0,0,1,6.792,0,1.7,1.7,0,0,0,1.7,1.7h1.7a3.4,3.4,0,1,1,0,6.792Z" transform="translate(-0.018 -170.69)" fill="#fff"/>
      </g>
    </g>
    <g id="Group_36" data-name="Group 36" transform="translate(8.507 49.247)">
      <g id="Group_35" data-name="Group 35">
        <path id="Path_13" data-name="Path 13" d="M51.171,247.485H44.379a1.7,1.7,0,0,0-1.7,1.7v6.792a1.7,1.7,0,0,0,1.7,1.7h6.792a1.7,1.7,0,0,0,1.7-1.7v-6.792A1.7,1.7,0,0,0,51.171,247.485Zm-1.7,6.792h-3.4v-3.4h3.4v3.4Z" transform="translate(-42.681 -247.485)" fill="#fff"/>
      </g>
    </g>
    <g id="Group_38" data-name="Group 38" transform="translate(84.912 44.153)">
      <g id="Group_37" data-name="Group 37">
        <path id="Path_14" data-name="Path 14" d="M431.75,221.887a5.094,5.094,0,1,0,5.094,5.094A5.1,5.1,0,0,0,431.75,221.887Zm0,6.793a1.7,1.7,0,1,1,1.7-1.7A1.7,1.7,0,0,1,431.75,228.68Z" transform="translate(-426.656 -221.887)" fill="#fff"/>
      </g>
    </g>
    <g id="Group_40" data-name="Group 40" transform="translate(78.12 37.362)">
      <g id="Group_39" data-name="Group 39">
        <path id="Path_15" data-name="Path 15" d="M404.41,187.756A11.885,11.885,0,1,0,416.3,199.641,11.9,11.9,0,0,0,404.41,187.756Zm0,20.376a8.49,8.49,0,1,1,8.49-8.49A8.5,8.5,0,0,1,404.41,208.132Z" transform="translate(-392.525 -187.756)" fill="#fff"/>
      </g>
    </g>
  </g>
</svg>
