<svg xmlns="http://www.w3.org/2000/svg" width="110.014" height="103.997" viewBox="0 0 110.014 103.997">
  <path id="Path_16" data-name="Path 16" d="M104.175,44.936H85.519a5.847,5.847,0,0,0-5.839,5.842V72.251H72.7a16.029,16.029,0,0,0,.437-5.008h0c-.151-8.178-1.635-15.07-4.411-20.485A21.98,21.98,0,0,0,61.9,38.526a14.943,14.943,0,0,0,4-10.583,13.674,13.674,0,1,0-27.343,0,1.611,1.611,0,0,0,1.612,1.612h1.095a11.347,11.347,0,0,0-.154,1.857A11.19,11.19,0,0,0,50.1,42.373a27.161,27.161,0,0,0-.8,7.01L45.276,52.84l-9.78.791L24.215,49.9c-1.034-.344-2.206-.732-3.223,0a2.862,2.862,0,0,0-1,2.4v8.387A1.611,1.611,0,0,0,21.6,62.306H23.52L20.578,72.475a1.612,1.612,0,0,0,3.1.9l3.2-11.065h4.581c-5.7,17.377-2.447,28.976,2.551,40.715h-2.9L19.046,89.53,21.6,80.716a1.612,1.612,0,0,0-3.1-.9l-2.44,8.431A16.21,16.21,0,0,0,.041,100.816a1.611,1.611,0,0,0,1.209,1.931l2.288.526a12.33,12.33,0,0,0,23.829,5.484l1.805.415a2.1,2.1,0,0,0,1.558-.087,1.85,1.85,0,0,0,.908-1.236,16.031,16.031,0,0,0,.26-1.6H65.6a13.732,13.732,0,0,0,27.178,0h1.23l.3,0a2.207,2.207,0,0,0,1.673-.607,2.066,2.066,0,0,0,.57-1.567,18.269,18.269,0,0,0-.66-4.365c1.284-7.793.049-12.539-1.782-16.254A4.243,4.243,0,0,0,96.035,79.9V75.474h8.14a5.847,5.847,0,0,0,5.839-5.842V50.778a5.846,5.846,0,0,0-5.838-5.842Zm-83.53,67.24a9.039,9.039,0,0,1-6.874,1.158h0a9.131,9.131,0,0,1-7.059-9.328l17.48,4.023a9.059,9.059,0,0,1-3.548,4.146Zm8.064-6.417L3.641,99.99a12.978,12.978,0,0,1,12.831-8.5l12.28,13.73Q28.736,105.49,28.709,105.759ZM53.05,77.676a14.348,14.348,0,0,0-.468,4.86v6.081h-5.9V80.275c0-9.432,5.148-11.113,7.458-11.391h15.8a6.832,6.832,0,0,1-1.464,4.628c-1.069,1.125-2.9,1.674-5.591,1.676l-5.785.006c-2.063,0-3.425.835-4.049,2.481Zm-.468,14.165v3.848H41.091A4.592,4.592,0,0,1,42.2,92.933a3.976,3.976,0,0,1,2.869-1.092ZM69.868,65.661H55.212A60.176,60.176,0,0,1,53.668,59.7L58.123,56.8c2.432-1.58,3.7-3.811,3.472-6.124a5.7,5.7,0,0,0-3.55-4.664,5.817,5.817,0,0,0-5.409.6,19.028,19.028,0,0,1,.778-4.086,11.36,11.36,0,0,0,2.039-.4,13.35,13.35,0,0,0,3.762-1.491c3.1,1.854,9.93,7.869,10.652,25.027ZM41.9,26.332a10.434,10.434,0,0,1,20.779,1.612c0,4.808-2.305,8.682-6.023,10.388V29.851a3.207,3.207,0,0,0-3.238-3.513q-.073-.007-.146-.007Zm2.434,5.08a8.025,8.025,0,0,1,.215-1.857h8.644c.1.011.172.022.224.033a1.916,1.916,0,0,1,.016.264v9.428a7.971,7.971,0,0,1-1.156.085h-.011a7.955,7.955,0,0,1-7.931-7.952ZM42.241,56.32l3.817-.309a1.612,1.612,0,0,0,.922-.384L53.869,49.7h0a3.2,3.2,0,0,1,2.069-.868,2.481,2.481,0,0,1,2.448,2.162c.106,1.089-.611,2.192-2.019,3.107l-7.676,4.982H42.242V56.32Zm-6.811.551,3.587-.29v2.5H34.85c-.54,0-.672-.449-.688-.826A1.279,1.279,0,0,1,35.431,56.871Zm-3.814-1.113a4.655,4.655,0,0,0-.594,3.312s0,.009,0,.013H23.214V52.966l8.409,2.78-.006.012Zm3.242,6.549H49.169a1.611,1.611,0,0,0,.877-.26l.729-.474c.351,1.551.751,3.06,1.186,4.486-3.287.97-8.5,4.105-8.5,14.215v8.5a6.726,6.726,0,0,0-3.587,1.926,7.86,7.86,0,0,0-2.015,4.983H34.606c-3.276-9.441-4.522-19.488.253-33.382Zm2.656,40.709c-.6-1.37-1.17-2.734-1.71-4.1H52.537c2.169,0,3.268-.987,3.268-2.934V84.148h12.72a1.612,1.612,0,0,0,0-3.223H55.817a7.3,7.3,0,0,1,.247-2.106c.081-.215.152-.4,1.037-.4l5.786-.006c3.624,0,6.216-.88,7.926-2.68.079-.083.154-.171.229-.258H92.813V79.9a1.034,1.034,0,0,1-1.02,1.022H75.75a1.612,1.612,0,0,0,0,3.223h15.1A19.026,19.026,0,0,1,93.2,94.1a17.489,17.489,0,0,0-26.638-2.08,17.753,17.753,0,0,0-5.066,11Zm41.676,11.758a10.619,10.619,0,0,1-10.315-8.53H89.505A10.62,10.62,0,0,1,79.191,114.774Zm12.145-11.753H64.731A14.455,14.455,0,0,1,78.99,90.048,14.3,14.3,0,0,1,92.7,100.3c.006.019.012.038.018.057a14.874,14.874,0,0,1,.532,2.67Zm15.455-33.39a2.62,2.62,0,0,1-2.616,2.619H82.9V63.929h23.887Zm0-8.926H82.9V57.278h23.887Zm0-6.65H82.9V50.778a2.62,2.62,0,0,1,2.616-2.619h18.656a2.62,2.62,0,0,1,2.616,2.619Z" transform="translate(0 -14)" fill="#fff"/>
</svg>
