<svg xmlns="http://www.w3.org/2000/svg" width="18.135" height="18.16" viewBox="0 0 18.135 18.16">
  <g id="add-to-cart" transform="translate(-0.025)">
    <g id="Group_7692" data-name="Group 7692" transform="translate(0.025 0)">
      <path id="Path_11566" data-name="Path 11566" d="M18.054,5.567a.532.532,0,0,0-.427-.213H14.363a3.723,3.723,0,0,0-7.37,0H4.224L3.529.457A.532.532,0,0,0,3,0H.536a.532.532,0,0,0,0,1.064H2.541l1.5,10.555A2.66,2.66,0,0,0,4.876,13.2a1.6,1.6,0,0,0,.6,2.772,1.6,1.6,0,1,0,2.99.056H12.9a1.6,1.6,0,1,0,1.5-1.064H5.89a.532.532,0,1,1,0-1.064h7.97a2.671,2.671,0,0,0,2.557-1.927l1.722-5.939a.531.531,0,0,0-.085-.471ZM14.4,16.029a.532.532,0,1,1-.532.532A.532.532,0,0,1,14.4,16.029Zm-7.447,0a.532.532,0,1,1-.376.156.532.532,0,0,1,.376-.156Zm3.724-12.8a2.66,2.66,0,1,1-2.66,2.66,2.66,2.66,0,0,1,2.66-2.66Zm4.717,8.453a1.6,1.6,0,0,1-1.538,1.158H6.672a1.6,1.6,0,0,1-1.58-1.367L4.375,6.421H6.992a3.723,3.723,0,0,0,7.37,0h2.557ZM9.614,6.419h.532v.532a.532.532,0,1,0,1.064,0V6.419h.532a.532.532,0,0,0,0-1.064H11.21V4.823a.532.532,0,1,0-1.064,0v.532H9.614a.532.532,0,1,0,0,1.064Z" transform="translate(-0.025 0)" fill="#fff"/>
    </g>
  </g>
</svg>
