<svg xmlns="http://www.w3.org/2000/svg" width="10.029" height="17.67" viewBox="0 0 10.029 17.67">
  <path id="_002-facebook" data-name="002-facebook" d="M6.695,17.669H3.865a.858.858,0,0,1-.857-.857V10.43H1.357A.858.858,0,0,1,.5,9.573V6.838a.858.858,0,0,1,.857-.857H3.008V4.611A4.663,4.663,0,0,1,4.241,1.27,4.441,4.441,0,0,1,7.516,0L9.674,0a.858.858,0,0,1,.856.857V3.4a.858.858,0,0,1-.857.857H8.219c-.443,0-.556.089-.58.116-.04.045-.087.173-.087.525V5.981H9.563a.871.871,0,0,1,.424.108.86.86,0,0,1,.441.75V9.573a.858.858,0,0,1-.857.857H7.552v6.383a.858.858,0,0,1-.857.857ZM4.044,16.633H6.516V9.966a.573.573,0,0,1,.572-.572h2.3V7.017h-2.3a.573.573,0,0,1-.572-.572V4.9a1.764,1.764,0,0,1,.347-1.211,1.756,1.756,0,0,1,1.356-.466H9.493V1.039l-1.979,0A3.27,3.27,0,0,0,4.044,4.611V6.444a.573.573,0,0,1-.572.572H1.536V9.394H3.472a.573.573,0,0,1,.572.572ZM9.672,1.039h0Zm0,0" transform="translate(-0.5 0)" fill="#1b2390"/>
</svg>
