<svg id="_005-instagram" data-name="005-instagram" xmlns="http://www.w3.org/2000/svg" xmlns:xlink="http://www.w3.org/1999/xlink" width="16.127" height="16.126" viewBox="0 0 16.127 16.126">
  <defs>
    <linearGradient id="linear-gradient" x1="0.084" y1="0.916" x2="0.916" y2="0.084" gradientUnits="objectBoundingBox">
      <stop offset="0" stop-color="#ffd600"/>
      <stop offset="0.5" stop-color="#ff0100"/>
      <stop offset="1" stop-color="#d800b9"/>
    </linearGradient>
    <linearGradient id="linear-gradient-2" x1="0.146" y1="0.854" x2="0.854" y2="0.146" gradientUnits="objectBoundingBox">
      <stop offset="0" stop-color="#ff6400"/>
      <stop offset="0.5" stop-color="#ff0100"/>
      <stop offset="1" stop-color="#fd0056"/>
    </linearGradient>
    <linearGradient id="linear-gradient-3" x1="0.146" y1="0.854" x2="0.854" y2="0.146" gradientUnits="objectBoundingBox">
      <stop offset="0" stop-color="#f30072"/>
      <stop offset="1" stop-color="#e50097"/>
    </linearGradient>
  </defs>
  <path id="Path_3" data-name="Path 3" d="M16.078,4.739A5.92,5.92,0,0,0,15.7,2.781a3.952,3.952,0,0,0-.93-1.428,3.953,3.953,0,0,0-1.428-.93A5.919,5.919,0,0,0,11.388.049C10.528.009,10.253,0,8.063,0S5.6.009,4.739.048A5.921,5.921,0,0,0,2.781.423a3.952,3.952,0,0,0-1.428.93,3.953,3.953,0,0,0-.93,1.428A5.919,5.919,0,0,0,.049,4.739C.009,5.6,0,5.873,0,8.063s.009,2.465.049,3.325a5.918,5.918,0,0,0,.375,1.957,3.951,3.951,0,0,0,.93,1.428,3.951,3.951,0,0,0,1.428.93,5.917,5.917,0,0,0,1.957.375c.86.039,1.135.048,3.325.048s2.465-.009,3.325-.048a5.917,5.917,0,0,0,1.957-.375A4.122,4.122,0,0,0,15.7,13.345a5.918,5.918,0,0,0,.375-1.957c.039-.86.048-1.135.048-3.324s-.009-2.465-.048-3.324Zm-1.451,6.583a4.461,4.461,0,0,1-.278,1.5,2.67,2.67,0,0,1-1.53,1.53,4.461,4.461,0,0,1-1.5.278c-.85.039-1.105.047-3.258.047s-2.408-.008-3.258-.047a4.463,4.463,0,0,1-1.5-.278,2.5,2.5,0,0,1-.927-.6,2.5,2.5,0,0,1-.6-.927,4.461,4.461,0,0,1-.278-1.5c-.039-.85-.047-1.105-.047-3.258S1.461,5.655,1.5,4.8a4.464,4.464,0,0,1,.278-1.5,2.5,2.5,0,0,1,.6-.927,2.5,2.5,0,0,1,.927-.6A4.461,4.461,0,0,1,4.8,1.5c.85-.039,1.105-.047,3.258-.047h0c2.153,0,2.408.008,3.258.047a4.462,4.462,0,0,1,1.5.278,2.5,2.5,0,0,1,.927.6,2.5,2.5,0,0,1,.6.927,4.457,4.457,0,0,1,.278,1.5c.039.85.047,1.105.047,3.258s-.008,2.408-.047,3.258Zm0,0" transform="translate(0 0)" fill="url(#linear-gradient)"/>
  <path id="Path_4" data-name="Path 4" d="M128.68,124.539a4.141,4.141,0,1,0,4.141,4.141A4.141,4.141,0,0,0,128.68,124.539Zm0,6.828a2.688,2.688,0,1,1,2.688-2.688A2.688,2.688,0,0,1,128.68,131.367Zm0,0" transform="translate(-120.616 -120.616)" fill="url(#linear-gradient-2)"/>
  <path id="Path_5" data-name="Path 5" d="M363.865,89.593a.968.968,0,1,1-.968-.968A.968.968,0,0,1,363.865,89.593Zm0,0" transform="translate(-350.529 -85.834)" fill="url(#linear-gradient-3)"/>
</svg>
