<svg xmlns="http://www.w3.org/2000/svg" width="12.961" height="13.037" viewBox="0 0 12.961 13.037">
  <path id="_004-linkedin" data-name="004-linkedin" d="M7.043,17.146H4.351V8.455H7.043ZM7.311,5.685A1.577,1.577,0,1,0,5.736,7.262,1.577,1.577,0,0,0,7.311,5.685Zm9.807,6.679c0-2.333-.493-4.064-3.219-4.064a2.794,2.794,0,0,0-2.548,1.336h0V8.455H8.735v8.692H11.35V12.831c0-1.13.288-2.225,1.689-2.225,1.382,0,1.427,1.292,1.427,2.3v4.244h2.654Z" transform="translate(-4.158 -4.109)" fill="#155ebc"/>
</svg>
