<svg xmlns="http://www.w3.org/2000/svg" width="19.715" height="16.186" viewBox="0 0 19.715 16.186">
  <path id="_001-twitter" data-name="001-twitter" d="M.414,16.648a11.561,11.561,0,0,0,6.208,1.789A11.353,11.353,0,0,0,18.138,6.895,4.714,4.714,0,0,0,19.84,3.7a.623.623,0,0,0-.938-.537,2.575,2.575,0,0,1-2.094.351,4.446,4.446,0,0,0-5.266-.709A4.278,4.278,0,0,0,9.22,6.817,10.316,10.316,0,0,1,2.528,3.163a.623.623,0,0,0-1.018.083,4.339,4.339,0,0,0-.1,4.285.648.648,0,0,0-.541.645A4.391,4.391,0,0,0,2.4,11.492a.622.622,0,0,0-.159.645,4.469,4.469,0,0,0,2.529,2.709,7.248,7.248,0,0,1-3.948.659.623.623,0,0,0-.41,1.143ZM6.791,15.06a.623.623,0,0,0-.366-1.116,3.247,3.247,0,0,1-2.55-1.327,4.391,4.391,0,0,0,.85-.136.623.623,0,0,0-.04-1.211A3.2,3.2,0,0,1,2.264,9.1a4.3,4.3,0,0,0,.95.126.623.623,0,0,0,.354-1.142A3.093,3.093,0,0,1,2.243,4.7,11.574,11.574,0,0,0,9.911,8.125a.621.621,0,0,0,.637-.761A3.038,3.038,0,0,1,12.133,3.9a3.183,3.183,0,0,1,3.892.591,3.138,3.138,0,0,0,2.26.257,4.013,4.013,0,0,1-1.136,1.336.623.623,0,0,0-.265.54A10.123,10.123,0,0,1,14.1,14.067a10.2,10.2,0,0,1-7.474,3.125,10.455,10.455,0,0,1-3.354-.55A8.407,8.407,0,0,0,6.791,15.06Z" transform="translate(-0.124 -2.252)" fill="#449dff"/>
</svg>
