<svg xmlns="http://www.w3.org/2000/svg" width="35" height="33.5" viewBox="0 0 35 33.5">
  <g id="Group_246" data-name="Group 246" transform="translate(6.5 -1.5)">
    <path id="Path_146" data-name="Path 146" d="M15,31.5A1.5,1.5,0,1,1,13.5,30,1.5,1.5,0,0,1,15,31.5Z" transform="translate(-7 1)" fill="none" stroke="#121212" stroke-linecap="round" stroke-linejoin="round" stroke-width="2"/>
    <path id="Path_147" data-name="Path 147" d="M31.5,31.5A1.5,1.5,0,1,1,30,30,1.5,1.5,0,0,1,31.5,31.5Z" transform="translate(-7 1)" fill="none" stroke="#121212" stroke-linecap="round" stroke-linejoin="round" stroke-width="2"/>
    <path id="Path_148" data-name="Path 148" d="M1.5,1.5h6l4.02,20.085a3,3,0,0,0,3,2.415H29.1a3,3,0,0,0,3-2.415L34.5,9H9" transform="translate(-7 1)" fill="none" stroke="#121212" stroke-linecap="round" stroke-linejoin="round" stroke-width="2"/>
  </g>
</svg>
