<svg id="v9blqR" xmlns="http://www.w3.org/2000/svg" width="33.835" height="29.939" viewBox="0 0 33.835 29.939">
  <g id="Group_42" data-name="Group 42" transform="translate(0 0)">
    <path id="Path_26" data-name="Path 26" d="M14.835,158.251c-.117.591-.2,1.191-.356,1.772a10.1,10.1,0,0,1-2.69,4.581q-5.737,5.78-11.47,11.563a3.182,3.182,0,0,1-4.059.594,3.625,3.625,0,0,1-.743-.6q-5.742-5.774-11.474-11.559a10.189,10.189,0,0,1-2.871-5.351c-.064-.333-.116-.669-.173-1v-1.718l.07-.319a19.674,19.674,0,0,1,.436-1.957,9.864,9.864,0,0,1,4.67-5.666,9.8,9.8,0,0,1,5.879-1.217,8.782,8.782,0,0,1,4.766,1.99c.365.3.713.612,1.062.914a.206.206,0,0,0,.046-.019c.187-.17.372-.342.561-.51a9.019,9.019,0,0,1,8.241-2.217,9.8,9.8,0,0,1,7.816,7.483c.137.495.194,1.012.288,1.518Zm-2.49-.873a7.36,7.36,0,0,0-1.913-5.018A7.365,7.365,0,0,0,5.2,149.83a6.719,6.719,0,0,0-4.576,1.354A10.246,10.246,0,0,0-1.088,153a1.225,1.225,0,0,1-1.971.034c-.264-.3-.5-.615-.768-.907a6.637,6.637,0,0,0-3.785-2.194,7.248,7.248,0,0,0-6.042,1.528,7.355,7.355,0,0,0-2.818,6.7,7.405,7.405,0,0,0,2.248,4.656q5.74,5.778,11.469,11.565a.8.8,0,0,0,1.329.01q5.747-5.794,11.491-11.59A7.525,7.525,0,0,0,12.346,157.378Z" transform="translate(19 -147.301)" fill="#3d4152"/>
  </g>
</svg>
