<svg id="Group_5" data-name="Group 5" xmlns="http://www.w3.org/2000/svg" xmlns:xlink="http://www.w3.org/1999/xlink" width="22.54" height="22.54" viewBox="0 0 22.54 22.54">
  <defs>
    <clipPath id="clip-path">
      <rect id="Rectangle_2" data-name="Rectangle 2" width="22.54" height="22.54" fill="#31344b"/>
    </clipPath>
  </defs>
  <g id="Group_4" data-name="Group 4" transform="translate(0 0)">
    <g id="Group_3" data-name="Group 3" transform="translate(0 0)" clip-path="url(#clip-path)">
      <path id="Path_8" data-name="Path 8" d="M230.27,320.135l-6.715-6.715a8.745,8.745,0,0,0,2.068-5.622,8.812,8.812,0,1,0-8.812,8.812,8.736,8.736,0,0,0,5.534-2l6.643,6.643c.161.16.321.16.641.16s.481,0,.641-.16a.775.775,0,0,0,0-1.122Zm-13.458-5.127a7.21,7.21,0,1,1,7.21-7.21,7.18,7.18,0,0,1-7.21,7.21Zm0,0" transform="translate(-208 -298.988)" fill="#31344b"/>
    </g>
  </g>
</svg>
