<svg id="Group_76" data-name="Group 76" xmlns="http://www.w3.org/2000/svg" xmlns:xlink="http://www.w3.org/1999/xlink" width="23.529" height="23.538" viewBox="0 0 23.529 23.538">
  <defs>
    <clipPath id="clip-path">
      <rect id="Rectangle_87" data-name="Rectangle 87" width="23.529" height="23.538" fill="#31344b"/>
    </clipPath>
  </defs>
  <g id="Group_75" data-name="Group 75" transform="translate(0 0)">
    <g id="Group_74" data-name="Group 74" clip-path="url(#clip-path)">
      <path id="Path_31" data-name="Path 31" d="M275.746,361.821a15.045,15.045,0,0,0-3.669-2.2,19.956,19.956,0,0,1-2.817-1.573,9.9,9.9,0,0,0,2.453-5.948A9.342,9.342,0,0,0,271,347.8c-.645-1.279-2.089-2.8-5.3-2.8s-4.651,1.524-5.3,2.8a9.346,9.346,0,0,0-.717,4.293,9.885,9.885,0,0,0,2.453,5.948,19.85,19.85,0,0,1-2.819,1.573,15.046,15.046,0,0,0-3.668,2.2,7.2,7.2,0,0,0-1.654,4.6,1.949,1.949,0,0,0,1.95,1.979h19.5a1.949,1.949,0,0,0,1.95-1.98,7.2,7.2,0,0,0-1.654-4.6Zm.052,4.971a.486.486,0,0,1-.347.146h-19.5a.487.487,0,0,1-.346-.146.5.5,0,0,1-.141-.349,5.844,5.844,0,0,1,1.226-3.588,14.844,14.844,0,0,1,3.288-1.931,16.031,16.031,0,0,0,3.169-1.819l.986-.933-.857-1.052a8.467,8.467,0,0,1-2.125-5.025,8.087,8.087,0,0,1,.56-3.633c.67-1.327,2.012-2,3.991-2s3.32.673,3.989,2a8.081,8.081,0,0,1,.561,3.634,8.463,8.463,0,0,1-2.126,5.025l-.857,1.053.987.933a16.129,16.129,0,0,0,3.168,1.818,14.781,14.781,0,0,1,3.289,1.931,5.7,5.7,0,0,1,1.226,3.588.485.485,0,0,1-.139.349Zm0,0" transform="translate(-253.999 -345)" fill="#31344b"/>
    </g>
  </g>
</svg>
